<svg xmlns="http://www.w3.org/2000/svg"  viewBox="0 0 32 32" width="96px" height="96px" baseProfile="basic"><path fill="#09f" d="M22.72,28.197c-3.13-1.023-5.785-3.304-5.22-6.7c-3.401,1.213-3.832,5.026-3.194,7.875 c0.946,0.372,2.243,0.777,4.152,0.563C19.795,29.784,21.26,29.338,22.72,28.197z"/><path fill="#49db23" d="M14.307,29.368c-0.679-3.222-0.032-6.662,3.193-7.87c-2.751-2.339-6.269-0.806-8.417,1.171 c0.151,1.005,0.448,2.331,1.589,3.877C11.471,27.629,12.589,28.675,14.307,29.368z"/><path fill="#ffd200" d="M9.088,22.668c2.45-2.199,5.754-3.358,8.412-1.17c0.65-3.552-2.436-5.832-5.223-6.703 c-0.795,0.634-1.795,1.554-2.563,3.315C9.175,19.342,8.829,20.833,9.088,22.668z"/><path fill="#ffa000" d="M12.28,14.797c3.13,1.023,5.785,3.304,5.22,6.7c3.401-1.213,3.832-5.026,3.194-7.875 c-0.946-0.372-2.243-0.777-4.152-0.563C15.205,13.21,13.739,13.656,12.28,14.797z"/><path fill="#ff4030" d="M20.693,13.627c0.679,3.222,0.032,6.662-3.193,7.87c2.751,2.339,6.269,0.806,8.417-1.171 c-0.151-1.005-0.448-2.331-1.589-3.877C23.529,15.366,22.411,14.32,20.693,13.627z"/><path fill="#d738ff" d="M25.912,20.326c-2.45,2.199-5.754,3.358-8.412,1.17c-0.65,3.552,2.436,5.832,5.223,6.703 c0.795-0.634,1.795-1.554,2.563-3.315C25.825,23.653,26.171,22.161,25.912,20.326z"/><path fill="#fff" d="M16.957,9.543l-8.25-8.25C8.516,1.102,8.26,1,8,1C7.871,1,7.741,1.025,7.617,1.076	C7.244,1.231,7,1.596,7,2v12c0,0.415,0.257,0.788,0.645,0.935C7.761,14.979,7.881,15,8,15c0.281,0,0.555-0.118,0.748-0.337	l3.011-3.396l4.495-0.017c0.404-0.002,0.767-0.246,0.921-0.619C17.328,10.258,17.243,9.828,16.957,9.543z"/><polygon points="8,2 8,14 11.308,10.269 16.25,10.25"/></svg>